<svg width="29" height="29" viewBox="0 0 29 29" fill="none" xmlns="http://www.w3.org/2000/svg">
<g clip-path="url(#clip0_159_227)">
<path d="M28.2579 28.3891H22.3665C21.9498 28.3891 21.613 28.0524 21.613 27.6356V18.1478C21.613 14.8939 19.9347 14.8939 19.3809 14.8939C17.891 14.8939 17.2573 16.0699 17.0518 16.578C16.9547 16.8064 16.909 17.1945 16.909 17.7369V27.6414C16.909 28.0581 16.5723 28.3949 16.1555 28.3949H10.2585C10.0587 28.3949 9.86459 28.315 9.72188 28.1723C9.57918 28.0296 9.49926 27.8355 9.50495 27.6357C9.50495 27.4758 9.58487 11.5658 9.50495 9.93882C9.49354 9.7333 9.56774 9.5335 9.71047 9.38507C9.8532 9.23665 10.0473 9.15101 10.2585 9.15101H16.1555C16.5723 9.15101 16.9091 9.48779 16.9091 9.90453V10.3498C17.9024 9.46496 19.3352 8.73424 21.4703 8.73424C26.1913 8.73424 29.0114 11.9996 29.0114 17.4685V27.6356C29.0114 28.0524 28.6746 28.3891 28.2579 28.3891V28.3891ZM23.1201 26.8821L27.5101 26.882V17.4684C27.5101 12.8729 25.3122 10.2413 21.476 10.2413C18.9128 10.2413 17.6683 11.52 16.8862 12.6903C16.7949 12.9985 16.5037 13.2269 16.1612 13.2269H16.1213C15.8473 13.2269 15.5961 13.0785 15.4648 12.8387C15.3621 12.6503 15.3392 12.4334 15.4077 12.2336V10.6523H11.0292C11.0691 13.7978 11.0292 23.9764 11.0178 26.8764H15.402V17.7311C15.402 16.9718 15.4819 16.4238 15.6532 16.0071C16.3154 14.3687 17.7083 13.3811 19.3752 13.3811C21.75 13.3811 23.1144 15.1166 23.1144 18.1421V26.8821H23.1201L23.1201 26.8821ZM6.99886 28.389H1.1018C0.685068 28.389 0.348283 28.0522 0.348283 27.6355V9.90447C0.348283 9.48773 0.685068 9.15092 1.1018 9.15092H6.99886C7.41559 9.15092 7.75237 9.48774 7.75237 9.90444V27.6355C7.75237 28.0523 7.41559 28.3891 6.99886 28.3891V28.389ZM1.85538 26.882H6.24531V10.658H1.85541V26.882L1.85538 26.882ZM4.05318 8.23751L4.01319 8.23748C1.68976 8.23748 0 6.62764 0 4.41268C0 2.20344 1.71831 0.593567 4.09311 0.593567C6.42795 0.593567 8.09491 2.15773 8.14059 4.39554C8.14059 6.62764 6.42228 8.23748 4.05318 8.23748V8.23751ZM4.09311 2.10638C2.54605 2.10638 1.50709 3.0369 1.50709 4.41843C1.50709 5.77706 2.53467 6.73041 4.01322 6.73041H4.05315C5.59451 6.73041 6.63347 5.79989 6.63347 4.4184C6.60492 3.01977 5.60592 2.10638 4.09311 2.10638V2.10638Z" fill="#0A58CA"/>
</g>
<defs>
<clipPath id="clip0_159_227">
<rect width="29" height="29" fill="white"/>
</clipPath>
</defs>
</svg>
