<svg width="37" height="37" viewBox="0 0 37 37" fill="none" xmlns="http://www.w3.org/2000/svg">
<path d="M35.4577 4.625C33.9814 5.66636 32.3468 6.46284 30.6169 6.98375C29.6884 5.91616 28.4544 5.15948 27.0819 4.81605C25.7093 4.47262 24.2644 4.55901 22.9426 5.06353C21.6207 5.56805 20.4857 6.46637 19.691 7.63698C18.8964 8.80759 18.4804 10.194 18.4994 11.6088V13.1504C15.7901 13.2207 13.1055 12.6198 10.6847 11.4013C8.26383 10.1828 6.18192 8.38456 4.62435 6.16667C4.62435 6.16667 -1.54232 20.0417 12.3327 26.2083C9.15766 28.3635 5.37538 29.4442 1.54102 29.2917C15.416 37 32.3744 29.2917 32.3744 11.5625C32.3744 11.1308 32.3281 10.6992 32.251 10.2829C33.8245 8.73122 34.9348 6.7721 35.4577 4.625V4.625Z" stroke="#0A58CA" stroke-width="2" stroke-linecap="round" stroke-linejoin="round"/>
</svg>
